# 3ds Max Wavefront OBJ Exporter v0.99 - (c)2007 guruware
# File Created: 28.02.2022 04:13:02

mtllib Reflector4OtherOne.mtl

#
# object Box001
#

v  -0.5000 0.0000 0.5000
v  -0.5000 0.0000 -0.5000
v  0.5000 0.0000 -0.5000
v  0.5000 0.0000 0.5000
v  -0.5000 1.0000 0.5000
v  0.5000 1.0000 0.5000
v  0.5000 1.0000 -0.5000
v  -0.5000 1.0000 -0.5000
# 8 vertices

vn -0.5774 -0.5774 0.5774
vn -0.5774 -0.5774 -0.5774
vn 0.5774 -0.5774 -0.5774
vn 0.5774 -0.5774 0.5774
vn -0.5774 0.5774 0.5774
vn 0.5774 0.5774 0.5774
vn 0.5774 0.5774 -0.5774
vn -0.5774 0.5774 -0.5774
# 8 vertex normals

vt 0.0756 0.3590 0.0000
vt 0.0756 0.0272 0.0000
vt 0.4074 0.0272 0.0000
vt 0.4074 0.3590 0.0000
vt 0.0229 0.7867 0.0000
vt 0.1837 0.7867 0.0000
vt 0.1837 0.9778 0.0000
vt 0.0229 0.9778 0.0000
vt 0.5857 0.1428 0.0000
vt 0.7465 0.1428 0.0000
vt 0.7465 0.3015 0.0000
vt 0.5857 0.3015 0.0000
vt 0.6985 0.7385 0.0000
vt 0.9242 0.7385 0.0000
vt 0.9242 0.9599 0.0000
vt 0.6985 0.9599 0.0000
vt 0.1406 0.4226 0.0000
vt 0.3360 0.4226 0.0000
vt 0.3360 0.5943 0.0000
vt 0.1406 0.5943 0.0000
vt 0.2400 0.7548 0.0000
vt 0.4290 0.7548 0.0000
vt 0.4290 0.9330 0.0000
vt 0.2400 0.9330 0.0000
# 24 texture coords

o Box001
g Box001
usemtl Material__43
s 2
f 1/1/1 2/2/2 3/3/3 4/4/4 
s 4
f 5/5/5 6/6/6 7/7/7 8/8/8 
s 8
f 1/9/1 4/10/4 6/11/6 5/12/5 
s 16
f 4/13/4 3/14/3 7/15/7 6/16/6 
s 32
f 3/17/3 2/18/2 8/19/8 7/20/7 
s 64
f 2/21/2 1/22/1 5/23/5 8/24/8 
# 6 polygons

